<?xml version="1.0" encoding="UTF-8" standalone="no"?>
<svg width="262px" height="262px" viewBox="0 0 262 262" version="1.1" xmlns="http://www.w3.org/2000/svg" xmlns:xlink="http://www.w3.org/1999/xlink" xmlns:sketch="http://www.bohemiancoding.com/sketch/ns">
    <!-- Generator: Sketch 3.3.2 (12043) - http://www.bohemiancoding.com/sketch -->
    <title>favicon@3x</title>
    <desc>Created with Sketch.</desc>
    <defs></defs>
    <g id="Page-1" stroke="none" stroke-width="1" fill="none" fill-rule="evenodd" sketch:type="MSPage">
        <g id="Artboard-1" sketch:type="MSArtboardGroup" transform="translate(-275.000000, 0.000000)">
            <g id="favicon" sketch:type="MSLayerGroup" transform="translate(275.000000, 0.000000)">
                <rect id="rec" fill="#FFFFFF" sketch:type="MSShapeGroup" x="0" y="0" width="262" height="262"></rect>
                <g id="logo-long-trans" transform="translate(46.000000, 8.000000)" sketch:type="MSShapeGroup">
                    <path d="M5.01283658,226.152764 C-7.82329164,216.86244 37.6153593,198.314097 71.2201546,200.819449 C107.28666,203.50833 170.936508,247.660041 118.899912,247.18436 C84.7795331,246.872457 31.6254002,245.413973 5.01283658,226.152764 Z" id="beach" fill="#FFEE3E"></path>
                    <g id="trunk-+-leaves">
                        <g id="trunk" transform="translate(42.105263, 67.178476)" stroke-width="4">
                            <path d="M1.76038642,64.1914014 C4.20491701,53.8333868 13.6452276,40.1993365 23.4682092,28.1615277 C36.0219817,12.7772056 49.2007647,0 49.2007647,0 L57.2359895,0 C57.2359895,0 28.9158669,47.4079489 28.9158669,72.1811287 C28.9158669,95.5287014 42.3716794,152.223568 42.3716794,152.223568 L6.31082497,143.907217 C6.31082497,143.907217 -4.02765185,88.7165945 1.76038642,64.1914014 Z" id="Rectangle-3" stroke="#5E5018" fill="#816B1C"></path>
                            <path d="M43.1332237,12.5289645 L41.3411458,25.0551373 L22.9063871,30.2169143 L28.3648575,60.8777024 L3.13527961,79.5064413 L30.276864,112.191182 L5.42763158,127.58718 L39.0213816,144.970839" id="Path-3" stroke="#534815"></path>
                        </g>
                        <g id="leaves">
                            <path d="M97.2347862,55.5791341 L75.6304825,15.3345815 L67.8830866,25.3454698 L65.4810855,8.12093531 L26.5522204,0.220541041 L97.2347862,55.5791341 Z" id="Path-4" fill="#7FE503"></path>
                            <path d="M26.8263432,2.61299259 C26.8263432,2.61299259 29.0844298,40.5209268 41.2966009,44.2226663 C53.5087719,47.9244058 96.2616502,57.9660023 96.2616502,57.9660023 L26.8263432,2.61299259 Z" id="Path-5" fill="#4F850F"></path>
                            <path d="M103.128427,55.5093426 C103.128427,55.5093426 134.124863,49.4430682 150.575658,49.4430682 C167.026453,49.4430682 199.705318,73.9482487 199.705318,73.9482487 L105.492736,60.0457881 L103.128427,55.5093426 Z" id="Path-6" fill="#7EE500"></path>
                            <path d="M198.218202,76.4412 L176.658443,83.0965144 L160.509183,70.4698419 L162.342379,84.7435931 L141.810581,84.7435931 L105.359101,59.6437893 L198.218202,76.4412 Z" id="Path-7" fill="#4F850F"></path>
                            <path d="M99.6333607,58.0888353 L150.054825,95.1871885 L158.302495,140.026811 L99.6333607,58.0888353 Z" id="Path-8" fill="#7EE500"></path>
                            <path d="M155.365954,141.581765 L102.34375,100.62534 L113.486842,87.501752 L99.5545504,84.8273429 L99.5545504,65.1461487 L125.318668,91.5468655 L155.365954,141.581765 Z" id="Path-9" fill="#4F850F"></path>
                            <path d="M94.4729989,61.0954518 L63.9014529,85.2879666 L6.11636513,87.0299616 L48.5608553,70.4865919 L94.4729989,61.0954518 Z" id="Path-10" fill="#4F850F"></path>
                            <path d="M92.2663103,57.8990025 L29.053591,58.3959178 L0.503700658,81.5918104 L7.5589364,85.7597569 L92.2663103,57.8990025 Z" id="Path-11" fill="#7EE501"></path>
                        </g>
                    </g>
                </g>
            </g>
        </g>
    </g>
</svg>