<?xml version="1.0" encoding="UTF-8" standalone="no"?>
<svg width="250px" height="250px" viewBox="0 0 250 250" version="1.1" xmlns="http://www.w3.org/2000/svg" xmlns:xlink="http://www.w3.org/1999/xlink" xmlns:sketch="http://www.bohemiancoding.com/sketch/ns">
    <!-- Generator: Sketch 3.3.2 (12043) - http://www.bohemiancoding.com/sketch -->
    <title>favicon-white@2x</title>
    <desc>Created with Sketch.</desc>
    <defs></defs>
    <g id="Page-1" stroke="none" stroke-width="1" fill="none" fill-rule="evenodd" sketch:type="MSPage">
        <g id="Artboard-3" sketch:type="MSArtboardGroup" transform="translate(-507.000000, -516.000000)">
            <g id="favicon-white" sketch:type="MSLayerGroup" transform="translate(468.000000, 476.000000)">
                <rect id="Rectangle-6-Copy-3" fill="#FFFFFF" sketch:type="MSShapeGroup" x="39" y="40" width="250" height="250"></rect>
                <g id="noun_199016_cc-copy" transform="translate(163.500000, 163.500000) rotate(-45.000000) translate(-163.500000, -163.500000) translate(48.000000, 48.000000)" fill="#000000" sketch:type="MSShapeGroup">
                    <path d="M230.877166,115.193688 C230.877166,89.4797978 202.776675,68.2177737 166.256572,64.7216598 C162.746783,28.2479387 141.471806,0.193148148 115.747216,0.193148148 C90.0170801,0.193148148 68.747648,28.250709 65.2406313,64.7272004 C28.7537965,68.2399361 0.689346372,89.4881087 0.689346372,115.193688 C0.689346372,140.899267 28.7565689,162.152981 65.2434037,165.668487 C68.7725991,202.106194 90.0309418,230.127741 115.747216,230.127741 C141.457945,230.127741 162.721832,202.111734 166.251028,165.671257 C202.776675,162.180683 230.877166,140.915889 230.877166,115.193688 L230.877166,115.193688 Z M115.747216,14.3299701 C135.292249,14.3299701 151.857011,35.2706399 157.617945,64.2423985 C156.963671,64.2313173 156.31217,64.209155 155.655124,64.209155 C140.983874,64.209155 127.352253,67.1096552 115.788801,72.0380123 C104.222577,67.1124255 90.5881832,64.209155 75.9141602,64.209155 C75.2321633,64.209155 74.5584834,64.2313173 73.8792589,64.2451688 C79.6374198,35.2678696 96.1966375,14.3299701 115.747216,14.3299701 L115.747216,14.3299701 Z M159.797008,86.7455153 C159.797008,95.344515 158.846094,103.558444 157.166052,111.198921 C155.449971,107.686185 153.564776,104.361829 151.474428,101.336666 C153.351306,105.619544 154.942632,110.25702 156.229,115.163215 C154.942632,120.066639 153.354078,124.704115 151.4772,128.986993 C153.567548,125.96183 155.449971,122.640244 157.166052,119.127509 C158.846094,126.765216 159.794236,134.976374 159.794236,143.569833 C159.794236,148.622853 159.478188,153.553981 158.879362,158.31889 C154.155286,158.906193 149.267641,159.213696 144.260786,159.213696 C135.630475,159.213696 127.388293,158.257944 119.728303,156.570833 C123.23532,154.85879 126.553817,152.980529 129.572901,150.897267 C125.297945,152.767217 120.668128,154.351826 115.772167,155.634473 C110.88175,154.351826 106.257478,152.767217 101.988067,150.900037 C105.004378,152.9833 108.320103,154.85602 111.821575,156.565293 C104.164358,158.252403 95.9304924,159.202615 87.3057265,159.202615 C82.2683754,159.202615 77.3530074,158.889571 72.6067524,158.296728 C72.0079259,153.540129 71.6918785,148.614543 71.6918785,143.569833 C71.6918785,134.970833 72.6427929,126.759675 74.3256065,119.116428 C76.0416881,122.631934 77.9241105,125.959059 80.0172311,128.984223 C78.1403534,124.701345 76.5490273,120.058328 75.2626591,115.152134 C76.5462549,110.248709 78.1375811,105.611233 80.0144587,101.333896 C77.9241105,104.356289 76.0416881,107.680644 74.3283788,111.19061 C72.6483376,103.552903 71.7001956,95.3417447 71.7001956,86.7455153 C71.7001956,81.7229681 72.0106982,76.8167734 72.6039801,72.082337 C77.3530074,71.4894936 82.2683754,71.1736799 87.3057265,71.1736799 C95.9332647,71.1736799 104.175447,72.1294321 111.838209,73.8193128 C108.331192,75.5313559 105.012695,77.4068465 101.993611,79.4928796 C106.268568,77.6229296 110.898384,76.0355499 115.794346,74.755673 C120.687535,76.0355499 125.311806,77.6229296 129.58399,79.4901093 C126.567679,77.4068465 123.249182,75.5313559 119.744937,73.8220831 C127.402155,72.1349727 135.63602,71.1819907 144.263558,71.1819907 C149.27873,71.1819907 154.169147,71.4922639 158.895996,72.0795667 C159.483733,76.8167734 159.797008,81.7201979 159.797008,86.7455153 L159.797008,86.7455153 Z M14.8310791,115.193688 C14.8310791,95.67141 35.7733745,79.1216599 64.7554709,73.3594436 C64.7443815,74.027085 64.7222028,74.6919561 64.7222028,75.3651381 C64.7222028,90.0089244 67.6193035,103.611079 72.5374438,115.157674 C67.6165311,126.707039 64.7194304,140.317505 64.7194304,154.961291 C64.7194304,155.653865 64.7416092,156.338129 64.7554709,157.025162 C35.7733745,151.262946 14.8310791,134.721507 14.8310791,115.193688 L14.8310791,115.193688 Z M115.747216,215.996459 C96.2160439,215.996459 79.6623709,195.089033 73.8875759,166.150518 C74.5612558,166.16437 75.2321633,166.186532 75.9113879,166.186532 C90.5826385,166.186532 104.211487,163.280491 115.774939,158.354904 C127.341163,163.283261 140.975557,166.186532 155.652352,166.186532 C156.303853,166.186532 156.94981,166.16437 157.595766,166.153288 C151.826516,195.091803 135.275615,215.996459 115.747216,215.996459 L115.747216,215.996459 Z M166.741733,157.047324 C166.752822,156.35198 166.777773,155.659406 166.777773,154.958521 C166.777773,140.314735 163.8779,126.71258 158.956987,115.163215 C163.8779,103.613849 166.777773,90.0089244 166.777773,75.3623679 C166.777773,74.6864156 166.755594,74.0215444 166.741733,73.3511327 C195.762642,79.0967273 216.738206,95.6547882 216.738206,115.193688 C216.738206,134.735358 195.75987,151.29896 166.741733,157.047324 L166.741733,157.047324 Z" id="Shape"></path>
                </g>
            </g>
        </g>
    </g>
</svg>