<?xml version="1.0" encoding="UTF-8" standalone="no"?>
<svg width="587px" height="691px" viewBox="0 0 587 691" version="1.1" xmlns="http://www.w3.org/2000/svg" xmlns:xlink="http://www.w3.org/1999/xlink" xmlns:sketch="http://www.bohemiancoding.com/sketch/ns">
    <!-- Generator: Sketch 3.3.2 (12043) - http://www.bohemiancoding.com/sketch -->
    <title>logo-long@2x</title>
    <desc>Created with Sketch.</desc>
    <defs></defs>
    <g id="Page-1" stroke="none" stroke-width="1" fill="none" fill-rule="evenodd" sketch:type="MSPage">
        <g id="Artboard-3" sketch:type="MSArtboardGroup" transform="translate(-117.000000, -1776.000000)">
            <g id="logo-long" sketch:type="MSLayerGroup" transform="translate(117.000000, 1776.000000)">
                <rect id="Rectangle-6-Copy" fill="#000000" sketch:type="MSShapeGroup" x="0" y="0" width="587" height="691"></rect>
                <text id="trippian" sketch:type="MSTextLayer" font-family="Poiret One" font-size="170" font-weight="normal" fill="#FFFFFF">
                    <tspan x="24" y="545">trippian</tspan>
                </text>
                <g id="noun_199016_cc" transform="translate(280.500000, 230.000000) rotate(-45.000000) translate(-280.500000, -230.000000) translate(121.000000, 71.000000)" fill="#FFFFFF" sketch:type="MSShapeGroup">
                    <path d="M318.830372,158.578324 C318.830372,123.179981 280.024932,93.910182 229.592409,89.0973498 C224.745558,38.8867728 195.365828,0.265892256 159.841393,0.265892256 C124.309301,0.265892256 94.9372281,38.8905865 90.0942052,89.1049771 C39.7076238,93.9406912 0.951954513,123.191422 0.951954513,158.578324 C0.951954513,193.965225 39.7114523,223.223584 90.0980336,228.063111 C94.9716844,278.224111 124.328443,316.799228 159.841393,316.799228 C195.346686,316.799228 224.711102,278.231738 229.584752,228.066925 C280.024932,223.26172 318.830372,193.988107 318.830372,158.578324 L318.830372,158.578324 Z M159.841393,19.7269719 C186.832154,19.7269719 209.707302,48.5543873 217.662876,88.4375876 C216.759356,88.422333 215.859664,88.3918237 214.952315,88.3918237 C194.692016,88.3918237 175.867396,92.3847201 159.89882,99.1692117 C143.926416,92.3885338 125.097967,88.3918237 104.83384,88.3918237 C103.892035,88.3918237 102.961715,88.422333 102.023738,88.4414012 C109.975484,48.5505737 132.842976,19.7269719 159.841393,19.7269719 L159.841393,19.7269719 Z M220.672059,119.415904 C220.672059,131.253488 219.358891,142.560974 217.038834,153.079034 C214.669007,148.24332 212.065643,143.666934 209.178972,139.502423 C211.770851,145.398333 213.968396,151.782391 215.744809,158.536374 C213.968396,165.286542 211.774679,171.6706 209.1828,177.56651 C212.069472,173.401999 214.669007,168.829427 217.038834,163.993713 C219.358891,174.507959 220.66823,185.811632 220.66823,197.641588 C220.66823,204.597694 220.231784,211.386 219.404833,217.945486 C212.881109,218.75398 206.131504,219.177296 199.217276,219.177296 C187.299228,219.177296 175.917167,217.861585 165.339086,215.539069 C170.182109,213.182231 174.764795,210.596573 178.934006,207.728705 C173.030495,210.302922 166.636939,212.484332 159.875849,214.250054 C153.122416,212.484332 146.736517,210.302922 140.840663,207.732518 C145.006046,210.600387 149.584904,213.178417 154.42027,215.531442 C143.846018,217.853958 132.475442,219.162041 120.565051,219.162041 C113.608709,219.162041 106.82082,218.731098 100.266468,217.914976 C99.4395167,211.366931 99.0030704,204.586253 99.0030704,197.641588 C99.0030704,185.804004 100.316238,174.500332 102.640123,163.978459 C105.00995,168.817986 107.609486,173.398186 110.499986,177.562697 C107.908107,171.666786 105.710561,165.275101 103.934148,158.521119 C105.706733,151.77095 107.904279,145.386892 110.496157,139.49861 C107.609486,143.659307 105.00995,148.235692 102.643952,153.067593 C100.323895,142.553347 99.0145558,131.249675 99.0145558,119.415904 C99.0145558,112.501748 99.4433452,105.747766 100.262639,99.2302302 C106.82082,98.4141081 113.608709,97.9793515 120.565051,97.9793515 C132.47927,97.9793515 143.861331,99.2950623 154.443241,101.621392 C149.600218,103.97823 145.017531,106.560074 140.84832,109.431756 C146.751831,106.857539 153.145387,104.672315 159.906477,102.910407 C166.663738,104.672315 173.049638,106.857539 178.94932,109.427943 C174.783937,106.560074 170.201251,103.97823 165.362056,101.625205 C175.936309,99.3026896 187.306885,97.9907924 199.221104,97.9907924 C206.146818,97.9907924 212.900251,98.4179218 219.427804,99.2264166 C220.239441,105.747766 220.672059,112.497935 220.672059,119.415904 L220.672059,119.415904 Z M20.481014,158.578324 C20.481014,131.703499 49.4013267,108.920727 89.4242217,100.988325 C89.4089078,101.907416 89.37828,102.822693 89.37828,103.749411 C89.37828,123.908389 93.3790381,142.633434 100.170756,158.528746 C93.3752097,174.427872 89.3744516,193.164358 89.3744516,213.323336 C89.3744516,214.27675 89.4050794,215.218722 89.4242217,216.164509 C49.4013267,208.232107 20.481014,185.460775 20.481014,158.578324 L20.481014,158.578324 Z M159.841393,297.345775 C132.869775,297.345775 110.009941,268.564124 102.035224,228.726687 C102.965544,228.745755 103.892035,228.776265 104.830012,228.776265 C125.09031,228.776265 143.911102,224.775741 159.879678,217.995063 C175.852082,224.779555 194.680531,228.776265 214.948486,228.776265 C215.848178,228.776265 216.740213,228.745755 217.632248,228.730501 C209.665188,268.567937 186.809183,297.345775 159.841393,297.345775 L159.841393,297.345775 Z M230.262393,216.195018 C230.277707,215.237791 230.312163,214.284377 230.312163,213.319522 C230.312163,193.160544 226.307576,174.4355 219.51203,158.536374 C226.307576,142.637247 230.312163,123.908389 230.312163,103.745597 C230.312163,102.815066 230.281535,101.899788 230.262393,100.976884 C270.338887,108.886404 299.305141,131.680618 299.305141,158.578324 C299.305141,185.479844 270.335058,208.281685 230.262393,216.195018 L230.262393,216.195018 Z" id="Shape"></path>
                </g>
            </g>
        </g>
    </g>
</svg>