<?xml version="1.0" standalone="no"?>
<!DOCTYPE svg PUBLIC "-//W3C//DTD SVG 20010904//EN"
 "http://www.w3.org/TR/2001/REC-SVG-20010904/DTD/svg10.dtd">
<svg version="1.0" xmlns="http://www.w3.org/2000/svg"
 width="700.000000pt" height="700.000000pt" viewBox="0 0 700.000000 700.000000"
 preserveAspectRatio="xMidYMid meet">
<metadata>
Created by potrace 1.11, written by Peter Selinger 2001-2013
</metadata>
<g transform="translate(0.000000,700.000000) scale(0.100000,-0.100000)"
fill="#000000" stroke="none">
<path d="M1955 6635 c24 -272 87 -581 152 -743 51 -130 125 -237 183 -267 50
-26 505 -144 1110 -290 398 -96 394 -95 384 -86 -5 5 -412 329 -904 721 -492
392 -903 720 -914 729 -18 16 -18 14 -11 -64z"/>
<path d="M4157 5116 c59 -40 279 -191 487 -335 l379 -261 269 0 268 0 0 23 c0
13 -9 93 -21 176 -11 84 -19 159 -17 167 2 8 60 -31 159 -109 86 -67 181 -141
212 -165 l56 -44 268 82 c147 45 273 85 280 89 7 4 -407 82 -920 175 -513 92
-1062 192 -1221 222 -158 30 -293 54 -298 54 -5 0 39 -33 99 -74z"/>
<path d="M3300 5060 l-425 -88 -520 -171 c-433 -143 -953 -328 -943 -336 6 -5
1511 44 1524 49 10 4 767 598 799 627 13 12 35 17 -435 -81z"/>
<path d="M3504 4898 c-569 -576 -996 -1151 -1122 -1509 -130 -370 -104 -1080
84 -2237 5 -31 13 -46 28 -51 49 -19 1047 -244 1052 -238 4 4 -23 141 -59 304
-179 812 -284 1431 -304 1792 -16 302 75 639 322 1186 78 174 256 527 339 670
l46 80 0 -187 0 -187 38 -7 c115 -21 324 -63 328 -66 2 -2 -62 -80 -141 -173
-79 -94 -143 -173 -142 -177 2 -7 1384 -1078 1391 -1078 3 0 -172 296 -387
657 l-392 656 -317 323 c-175 178 -318 328 -318 334 0 6 5 20 10 31 10 18 6
19 -152 19 l-163 0 -141 -142z"/>
</g>
</svg>
